<?xml version="1.0" standalone="no"?><!DOCTYPE svg PUBLIC "-//W3C//DTD SVG 1.1//EN" "http://www.w3.org/Graphics/SVG/1.1/DTD/svg11.dtd"><svg t="1596648637777" class="icon" viewBox="0 0 1024 1024" version="1.1" xmlns="http://www.w3.org/2000/svg" p-id="1357" xmlns:xlink="http://www.w3.org/1999/xlink" width="200" height="200"><defs><style type="text/css"></style></defs><path d="M64.53 94.07h63.94c51.05-0.01 93.65 34.46 106.53 83.85l1.19 5.13 17.43 72.99h-1.75l50.08 239.84 37.95 189.78h476.83l72.01-359.87H320.4l-15.62-69.76h578.99a74.75 74.75 0 0 1 57.96 27.54 74.704 74.704 0 0 1 15.24 62.34l-72.01 348.87c-7.18 34.74-37.77 59.64-73.24 59.63H341.9c-35.45 0-66.03-24.91-73.21-59.63l-70.77-342.74-0.47 0.1-32.4-153.68c-3.38-16-16.78-27.95-33.07-29.48l-3.49-0.18H64.51V94.07h63.94-63.92z m704.1 710.19c34.4 0 62.29 27.9 62.29 62.3s-27.89 62.3-62.29 62.3c-34.41 0-62.3-27.9-62.3-62.3s27.89-62.3 62.3-62.3z m-378.54 0c34.4 0 62.29 27.9 62.29 62.3s-27.89 62.3-62.29 62.3c-34.41 0-62.3-27.9-62.3-62.3s27.89-62.3 62.3-62.3z" p-id="1358"></path></svg>